<svg width="100" height="12" viewBox="0 0 100 12" fill="none" xmlns="http://www.w3.org/2000/svg">
<path d="M6 0L7.34708 4.1459H11.7063L8.17963 6.7082L9.52671 10.8541L6 8.2918L2.47329 10.8541L3.82037 6.7082L0.293661 4.1459H4.65292L6 0Z" fill="#A9CF3A"/>
<path d="M28 0L29.3471 4.1459H33.7063L30.1796 6.7082L31.5267 10.8541L28 8.2918L24.4733 10.8541L25.8204 6.7082L22.2937 4.1459H26.6529L28 0Z" fill="#A9CF3A"/>
<path d="M50 0L51.3471 4.1459H55.7063L52.1796 6.7082L53.5267 10.8541L50 8.2918L46.4733 10.8541L47.8204 6.7082L44.2937 4.1459H48.6529L50 0Z" fill="#A9CF3A"/>
<path d="M72 0L73.3471 4.1459H77.7063L74.1796 6.7082L75.5267 10.8541L72 8.2918L68.4733 10.8541L69.8204 6.7082L66.2937 4.1459H70.6529L72 0Z" fill="#A9CF3A"/>
<path d="M94 0L95.3471 4.1459H99.7063L96.1796 6.7082L97.5267 10.8541L94 8.2918L90.4733 10.8541L91.8204 6.7082L88.2937 4.1459H92.6529L94 0Z" fill="#A9CF3A"/>
</svg>
