<svg width="295" height="50" viewBox="0 0 295 50" fill="none" xmlns="http://www.w3.org/2000/svg">
<g clip-path="url(#clip0_1_195)">
<path d="M115.782 5.09097C115.782 3.90808 116.252 2.77363 117.089 1.9372C117.925 1.10077 119.06 0.630867 120.242 0.630867C121.425 0.630867 122.56 1.10077 123.396 1.9372C124.233 2.77363 124.702 3.90808 124.702 5.09097C124.659 6.24506 124.171 7.33752 123.339 8.13878C122.507 8.94003 121.397 9.3877 120.242 9.3877C119.088 9.3877 117.978 8.94003 117.146 8.13878C116.314 7.33752 115.825 6.24506 115.782 5.09097" fill="#273B7D"/>
<path d="M186.153 34.8363C186.153 32.3608 188.147 30.3606 190.604 30.3606C191.79 30.3606 192.928 30.8318 193.767 31.6706C194.605 32.5094 195.077 33.647 195.077 34.8331C195.077 36.0193 194.605 37.1569 193.767 37.9957C192.928 38.8345 191.79 39.3057 190.604 39.3057C188.15 39.3057 186.153 37.3023 186.153 34.8331" fill="#499FDD"/>
<path d="M42.5848 32.9013C38.7459 32.9013 36.0748 29.8513 36.0748 25.4906C36.0748 21.133 38.7458 18.0861 42.5878 18.0861C46.4485 18.0861 49.1475 21.133 49.1475 25.4906C49.1475 29.9196 46.5076 32.9013 42.5848 32.9013V32.9013ZM42.5848 11.5729C34.4597 11.5729 28.5615 17.4276 28.5615 25.4906C28.5615 33.5566 34.4628 39.4082 42.5848 39.4082C50.7441 39.4082 56.6638 33.5566 56.6638 25.4937C56.6638 17.4276 50.744 11.5729 42.5878 11.5729H42.5848ZM107.144 26.1894C106.862 25.6425 106.504 25.1376 106.082 24.6892L105.834 24.4315L106.095 24.183C106.467 23.7885 106.849 23.3226 107.216 22.7822L114.39 12.1227H105.682L100.293 20.4621C99.9883 20.9093 99.3735 21.133 98.451 21.133H97.2241V5.36731C97.2241 2.2148 95.2581 1.78619 93.1368 1.78619H89.5027L89.512 38.9982H97.2271V27.8355H97.9509C98.8299 27.8355 99.4261 27.938 99.7025 28.4163L103.958 36.4483C105.147 38.6286 106.331 38.9982 108.561 38.9982H114.471L110.067 31.7179L107.148 26.1894H107.144ZM144.596 11.5108C140.67 11.5108 138.166 13.2563 136.762 14.7317L136.297 15.2038L136.129 14.5608C135.719 12.9799 134.327 12.1134 132.237 12.1134H128.78L128.802 38.9889H136.464V26.6025C136.464 25.3912 136.619 24.3414 136.942 23.3817C137.794 20.4776 140.173 18.6731 143.145 18.6731C145.537 18.6731 146.472 19.9372 146.472 23.1984V34.9046C146.472 37.6875 147.76 38.9889 150.546 38.9889H154.193L154.181 21.8939C154.181 15.1044 150.866 11.5139 144.596 11.5139V11.5108ZM120.335 12.1227H116.704L116.729 32.9044V38.9982H120.602L120.739 39.0044L122.547 38.9982H124.342V38.9889H124.354L124.37 16.207C124.37 13.4582 123.056 12.1258 120.338 12.1258L120.335 12.1227ZM72.678 32.9013C68.839 32.9013 66.1649 29.8513 66.1649 25.4906C66.1649 21.133 68.8392 18.0861 72.6812 18.0861C76.5325 18.0861 79.2409 21.133 79.2409 25.4906C79.2409 29.9196 76.6008 32.9013 72.6812 32.9013H72.678ZM72.678 11.5729C64.5467 11.5729 58.6454 17.4276 58.6454 25.4906C58.6454 33.5566 64.5468 39.4082 72.6812 39.4082C80.828 39.4082 86.7602 33.5566 86.7602 25.4937C86.7602 17.4276 80.828 11.5729 72.6812 11.5729" fill="#273B7D"/>
<path d="M236.903 32.9003C233.064 32.9003 230.387 29.8503 230.387 25.4896C230.387 21.132 233.064 18.0851 236.903 18.0851C240.761 18.0851 243.466 21.132 243.466 25.4896C243.466 29.9186 240.826 32.9003 236.903 32.9003ZM236.903 11.572C228.772 11.572 222.874 17.4266 222.874 25.4896C222.874 33.5557 228.772 39.4072 236.903 39.4072C245.053 39.4072 250.982 33.5557 250.982 25.4927C250.982 17.4266 245.05 11.572 236.903 11.572" fill="#499FDD"/>
<path d="M170.334 31.7171C166.144 31.7171 164.653 28.0645 164.653 24.6387C164.653 23.1292 165.035 18.2125 169.933 18.2125C172.365 18.2125 175.605 18.9083 175.605 24.8903C175.605 30.5337 172.738 31.7171 170.334 31.7171V31.7171ZM179.583 12.0504C178.13 12.0504 177.012 12.6312 176.449 13.6903L176.238 14.1003L175.884 13.7897C174.648 12.7213 172.43 11.4509 168.831 11.4509C161.665 11.4509 156.842 16.8335 156.842 24.8375C156.842 32.8383 161.833 38.429 168.974 38.429C171.412 38.429 173.34 37.8575 174.868 36.7021L175.459 36.2579V37.0033C175.459 40.5938 173.138 42.5754 168.93 42.5754C166.883 42.5754 165.023 42.0784 163.774 41.625C162.153 41.1342 161.196 41.5411 160.541 43.1717L159.932 44.675L159.072 46.874L159.603 47.1566C162.299 48.5853 165.806 49.4395 168.974 49.4395C175.496 49.4395 183.118 46.1006 183.118 36.7021L183.146 12.0504H179.583" fill="#273B7D"/>
<path d="M14.0536 32.5944L7.81691 32.5882V25.134C7.81691 23.5375 8.43499 22.7113 9.79849 22.5188H14.0536C17.0881 22.5188 19.051 24.432 19.0541 27.5286C19.051 30.7091 17.1378 32.5913 14.0536 32.5913V32.5944ZM7.81691 12.4804V10.5175C7.81691 8.79993 8.54372 7.98307 10.1371 7.87747H13.33C16.0663 7.87747 17.7062 9.51429 17.7062 12.2568C17.7062 14.344 16.5818 16.7821 13.4293 16.7821H7.81691V12.4804V12.4804ZM22.0172 19.9222L20.8897 19.2886L21.8743 18.4469C23.0204 17.4623 24.9368 15.2478 24.9368 11.4275C24.9368 5.57598 20.4021 1.79918 13.3797 1.79918H4.45317C3.44876 1.8358 2.49699 2.25747 1.79502 2.97679C1.09304 3.69611 0.694713 4.65794 0.682617 5.66295V38.8652H13.538C21.3431 38.8652 26.381 34.6163 26.381 28.0349C26.381 24.491 24.7536 21.4628 22.0172 19.9222" fill="#273B7D"/>
<path d="M285.206 11.6012C283.625 11.6071 282.064 11.9682 280.641 12.6579C279.217 13.3476 277.967 14.3483 276.982 15.5861L276.429 16.2881L275.994 15.5023C274.572 12.915 272.131 11.6012 268.736 11.6012C265.173 11.6012 262.785 13.589 261.676 14.7693L260.949 15.5551L260.67 14.5208C260.266 13.03 258.94 12.2131 256.933 12.2131H253.712L253.681 38.9861H260.996V27.1681C260.996 26.1307 261.126 25.1089 261.384 24.0373C262.083 21.1799 264.002 18.1081 267.229 18.4156C269.217 18.6082 270.192 20.1456 270.192 23.1149V38.9861H277.56V27.1681C277.56 25.8729 277.681 24.9039 277.973 23.9349C278.563 21.2079 280.569 18.4125 283.682 18.4125C285.936 18.4125 286.769 19.686 286.769 23.1149V35.0727C286.769 37.7748 287.974 38.9861 290.679 38.9861H294.12L294.127 21.8943C294.127 15.0643 291.12 11.6012 285.206 11.6012V11.6012ZM218.634 29.6901C218.612 29.7181 215.466 33.0352 211.32 33.0352C207.543 33.0352 203.729 30.7182 203.729 25.5468C203.729 21.0805 206.686 17.9591 210.922 17.9591C212.295 17.9591 213.86 18.4498 214.106 19.2791L214.14 19.4188C214.296 19.9898 214.637 20.4931 215.109 20.8508C215.58 21.2085 216.157 21.4006 216.749 21.3973L220.755 21.4035V17.9C220.755 13.2784 214.876 11.6012 210.922 11.6012C202.462 11.6012 196.324 17.4901 196.324 25.6027C196.324 33.7092 202.393 39.5918 210.767 39.5918C218.028 39.5918 221.979 34.818 222.017 34.7714L222.228 34.5105L219.053 29.246L218.634 29.6901" fill="#499FDD"/>
</g>
<defs>
<clipPath id="clip0_1_195">
<rect width="294.811" height="50" fill="white"/>
</clipPath>
</defs>
</svg>
