<svg width="177" height="50" viewBox="0 0 177 50" fill="none" xmlns="http://www.w3.org/2000/svg">
<g clip-path="url(#clip0_1_210)">
<path d="M84.8636 39.1127H79.375C79.3403 39.1127 79.3403 39.1127 79.3229 39.0953L74.5986 33.3289L69.8743 39.0953C69.8569 39.1127 69.8396 39.1127 69.8222 39.1127H65.4279C65.3931 39.1127 65.3758 39.0953 65.3584 39.0779C65.3584 39.0606 65.3584 39.0258 65.3758 39.0085L72.3407 30.463L65.4626 22.0044C65.4452 21.9697 65.4452 21.9523 65.4452 21.9175C65.4626 21.9002 65.48 21.8828 65.4974 21.8828H70.9859C71.0033 21.8828 71.0206 21.9002 71.038 21.9175L75.1891 27.0587L79.4098 21.9175C79.4271 21.9002 79.4445 21.8828 79.4619 21.8828H83.9257C83.943 21.8828 83.9778 21.9002 83.9951 21.9175C84.0125 21.9523 83.9951 21.9697 83.9778 22.0044L77.4645 29.8377L84.9331 39.0085C84.9504 39.0258 84.9504 39.0606 84.9504 39.0779C84.9157 39.1127 84.8983 39.1127 84.8636 39.1127Z" fill="#072F54"/>
<path d="M114.547 24.9042C112.115 24.9042 110.465 26.3805 109.979 28.9338H118.246V28.7601C118.246 26.7279 116.735 24.9042 114.547 24.9042V24.9042ZM122.502 31.5738C122.484 31.5912 122.467 31.6085 122.45 31.6085H109.892C110.153 34.5265 112.046 36.1939 115.12 36.1939C117.013 36.1939 119.028 35.5512 121.859 34.0402C121.911 34.0054 121.963 34.0575 121.963 34.1096V37.9655C121.963 38.0002 121.946 38.0176 121.929 38.0176C119.289 39.1292 116.631 39.8934 114.547 39.8934C109.145 39.8934 105.22 35.9507 105.22 30.5317C105.22 25.1126 109.145 21.1699 114.547 21.1699C119.48 21.1699 122.641 24.4874 122.641 29.0553C122.641 29.8022 122.519 31.5217 122.502 31.5738" fill="#072F54"/>
<path d="M147.999 18.3039C146.454 18.3039 145.203 17.0707 145.203 15.5596C145.203 13.9964 146.454 12.7285 147.999 12.7285C149.545 12.7285 150.796 13.9964 150.796 15.5596C150.796 17.0707 149.545 18.3039 147.999 18.3039ZM145.742 39.1117C145.689 39.1117 145.672 39.0944 145.672 39.0423V21.934C145.672 21.8992 145.689 21.8645 145.724 21.8645H150.257C150.292 21.8645 150.31 21.8992 150.31 21.934V39.0423C150.31 39.0944 150.275 39.1117 150.24 39.1117H145.742Z" fill="#072F54"/>
<path d="M93.1662 36.5413C92.3499 36.5413 91.5162 36.4197 90.5435 36.1765L90.5609 25.1995C91.6899 24.8347 92.6625 24.6784 93.6352 24.6784C96.7789 24.6784 98.8805 26.9885 98.8805 30.4449C98.8805 34.1444 96.64 36.5413 93.1662 36.5413V36.5413ZM94.3994 21.1699C93.1141 21.1699 91.8288 21.3957 90.474 21.8647H85.9581C85.9234 21.8647 85.8887 21.8994 85.8887 21.9341V49.9847C87.2434 49.7937 88.9108 49.3073 90.5435 48.161V39.6329C91.6551 39.7893 92.5757 39.8935 93.4615 39.8935C99.6448 39.8935 103.64 36.1939 103.64 30.4622C103.64 24.9911 99.8358 21.1699 94.3994 21.1699" fill="#072F54"/>
<path d="M137.492 35.1172C136.085 35.8641 134.817 36.2114 133.636 36.2114C130.839 36.2114 129.155 34.2314 129.155 30.914C129.155 27.0928 131.291 24.6091 134.608 24.6091C135.529 24.6091 136.415 24.8349 137.492 25.3212V35.1172V35.1172ZM137.492 12.8157V21.7606C136.172 21.3785 135.008 21.2048 133.827 21.2048C128.442 21.2048 124.396 25.2517 124.396 30.6361C124.396 35.9856 127.973 39.8762 132.906 39.8762C134.608 39.8762 136.206 39.442 138.082 38.4867V40.0326C139.315 39.7894 140.74 39.3031 142.146 38.2957V10.9746C140.774 11.1657 139.142 11.6346 137.492 12.8157" fill="#072F54"/>
<path d="M166.028 35.0827C164.656 35.8643 163.492 36.2464 162.45 36.2464C159.445 36.2464 157.656 34.2664 157.656 30.949C157.656 27.1799 159.775 24.6441 162.919 24.6441C163.752 24.6441 164.777 24.9741 166.028 25.6341V35.0827V35.0827ZM170.682 21.6567C170.682 21.5525 170.596 21.4656 170.491 21.4656H166.827C166.722 21.4656 166.618 21.5525 166.618 21.6567V22.2819H166.531C164.847 21.5351 163.388 21.2051 161.981 21.2051C156.909 21.2051 152.932 25.4083 152.932 30.7926C152.932 36.2291 156.492 39.8765 161.79 39.8765C163.197 39.8765 165.02 39.7723 166.722 37.827V40.0328C167.921 39.7723 169.345 39.2686 170.682 38.296V21.6567V21.6567Z" fill="#072F54"/>
<path d="M52.8881 34.8393H64.2646C64.0909 36.1072 63.6567 37.6009 62.6841 39.112H50.8559C49.4143 39.112 48.2159 37.9831 48.0769 36.5762C48.0769 36.5588 48.0596 36.5414 48.0596 36.5067V14.0663C48.0596 14.0489 48.0769 14.0315 48.0769 14.0141C48.2159 12.5899 49.4143 11.4609 50.8559 11.4609H64.2473C64.0736 12.7289 63.6394 14.2573 62.6493 15.7684H52.8881V21.8822H62.5625C62.5972 21.8822 62.632 21.9169 62.632 21.9517V26.1897C62.632 26.2244 62.5972 26.2591 62.5625 26.2591H52.8881V34.8393V34.8393Z" fill="#072F54"/>
<path d="M38.6452 39.4775C37.5162 39.4775 36.8214 38.5917 36.8214 37.5148C36.8214 36.3685 37.6204 35.5522 38.6452 35.5522C39.6526 35.5522 40.4515 36.3511 40.4515 37.5148C40.4515 38.6785 39.6526 39.4775 38.6452 39.4775ZM38.6452 35.3438C37.4988 35.3438 36.5088 36.2122 36.5088 37.5148C36.5088 38.748 37.3946 39.6859 38.6452 39.6859C39.7742 39.6859 40.7642 38.8175 40.7642 37.5148C40.7642 36.2122 39.7915 35.3438 38.6452 35.3438Z" fill="#072F54"/>
<path d="M38.1417 37.3399V36.5409H38.6801C38.958 36.5409 39.2706 36.5757 39.2706 36.9057C39.2706 37.3052 38.9754 37.3225 38.6454 37.3225C38.628 37.3399 38.1417 37.3399 38.1417 37.3399ZM39.6528 36.9578C39.6528 36.4367 39.3401 36.2109 38.7148 36.2109H37.7422V38.7815H38.159V37.6873H38.5585L39.2185 38.7815H39.7049L38.9927 37.6525C39.3749 37.6178 39.6528 37.4268 39.6528 36.9578" fill="#072F54"/>
<path d="M174.434 24.7141C173.305 24.7141 172.61 23.8283 172.61 22.7514C172.61 21.605 173.409 20.7887 174.434 20.7887C175.442 20.7887 176.241 21.5877 176.241 22.7514C176.241 23.9151 175.442 24.7141 174.434 24.7141ZM174.434 20.5977C173.288 20.5977 172.298 21.4661 172.298 22.7688C172.298 24.0019 173.184 24.9399 174.434 24.9399C175.563 24.9399 176.553 24.0714 176.553 22.7688C176.553 21.4487 175.563 20.5977 174.434 20.5977" fill="#072F54"/>
<path d="M173.913 22.5764V21.7949H174.452C174.73 21.7949 175.042 21.8296 175.042 22.1596C175.042 22.5591 174.747 22.5764 174.417 22.5764H173.913ZM175.442 22.2117C175.442 21.6906 175.129 21.4648 174.504 21.4648H173.531V24.0354H173.948V22.9412H174.348L175.008 24.0354H175.494L174.782 22.9065C175.147 22.8717 175.442 22.6807 175.442 22.2117" fill="#072F54"/>
<path d="M23.9693 15.7507L23.153 13.4233L16.136 4.06155L17.3865 3.74892L29.4578 14.1876L36.5617 12.1554C37.3954 11.947 38.3506 11.8949 39.0628 11.8949C36.8396 7.08372 32.7405 3.12364 27.3562 1.21307C16.7091 -2.59069 4.98522 2.98469 1.19883 13.6491C0.0177548 16.9492 -0.242777 20.3535 0.243549 23.5841L17.2476 17.6787L23.9693 15.7507Z" fill="#072F54"/>
<path d="M39.8268 13.7363C39.2015 14.1358 38.2809 14.6742 37.3778 14.9695L30.2566 17.0017L25.5149 32.2514L24.2817 32.6509L25.2891 21.0138L24.7333 18.5996L18.0637 20.5101L0.416992 24.6265C1.82386 31.4004 6.61765 37.3231 13.6173 39.8069C24.2817 43.6106 35.9883 38.0352 39.792 27.3708C41.4247 22.8028 41.3205 18.009 39.8268 13.7363" fill="#072F54"/>
<path d="M24.7155 18.5827L25.2713 20.997L24.264 32.6341L25.4971 32.2346L30.2388 16.9848L37.36 14.9527C38.2632 14.6574 39.1837 14.1363 39.809 13.7195C39.5832 13.0942 39.34 12.4863 39.0621 11.8784C38.3327 11.8784 37.3947 11.9131 36.561 12.1389L29.4572 14.1711L17.3859 3.73242L16.1354 4.04506L23.135 13.4068L23.9513 15.7342L17.2296 17.6622L0.225586 23.5676C0.277692 23.9149 0.347167 24.2797 0.416642 24.6271L18.0459 20.4759L24.7155 18.5827V18.5827Z" fill="#FBC108"/>
</g>
<defs>
<clipPath id="clip0_1_210">
<rect width="176.554" height="50" fill="white"/>
</clipPath>
</defs>
</svg>
