<svg width="10" height="19" viewBox="0 0 10 19" fill="none" xmlns="http://www.w3.org/2000/svg">
<path fill-rule="evenodd" clip-rule="evenodd" d="M7.6974 3.24528C8.23906 3.22522 8.78073 3.24027 9.32406 3.24027H9.5474V0.411428C9.25906 0.383006 8.95573 0.341208 8.6524 0.326161C8.0974 0.301083 7.54073 0.274333 6.98406 0.286036C6.13406 0.304427 5.33073 0.511741 4.6274 1.01665C3.8224 1.59847 3.38073 2.41435 3.2124 3.37736C3.1424 3.7736 3.12406 4.18656 3.11406 4.59116C3.09906 5.2248 3.1124 5.85845 3.1124 6.49377V6.73285H0.414062V9.89105H3.09573V17.8325H6.37406V9.90443H9.0474C9.18406 8.85281 9.3174 7.81289 9.4574 6.73118C9.2424 6.73118 9.05073 6.72951 8.8574 6.73118C8.0974 6.73452 6.3524 6.73118 6.3524 6.73118C6.3524 6.73118 6.35906 5.16462 6.37906 4.48583C6.40406 3.55626 6.95406 3.27203 7.6974 3.24528Z" fill="#0D3151"/>
</svg>
