<svg width="18" height="19" viewBox="0 0 18 19" fill="none" xmlns="http://www.w3.org/2000/svg">
<g clip-path="url(#clip0_1_124)">
<path fill-rule="evenodd" clip-rule="evenodd" d="M5.11815 1.5638C3.1459 1.5638 1.54139 3.17334 1.54139 5.15166V12.9224C1.54139 14.9009 3.1459 16.5104 5.11815 16.5104H12.8644C14.8368 16.5104 16.4413 14.9009 16.4413 12.9224V5.15166C16.4413 3.17334 14.8368 1.5638 12.8644 1.5638H5.11815ZM12.8644 18.0565H5.11815C2.29591 18.0565 0 15.7535 0 12.9224V5.15166C0 2.3208 2.29591 0.0175781 5.11815 0.0175781H12.8644C15.6867 0.0175781 17.9827 2.3208 17.9827 5.15166V12.9224C17.9827 15.7535 15.6867 18.0565 12.8644 18.0565Z" fill="#0D3151"/>
<path fill-rule="evenodd" clip-rule="evenodd" d="M9 6.02485C7.34935 6.02485 6.00635 7.37196 6.00635 9.02778C6.00635 10.6836 7.34935 12.0307 9 12.0307C10.6506 12.0307 11.9935 10.6836 11.9935 9.02778C11.9935 7.37196 10.6506 6.02485 9 6.02485ZM9 13.5419C6.51874 13.5419 4.5 11.5169 4.5 9.02778C4.5 6.53874 6.51874 4.51367 9 4.51367C11.4813 4.51367 13.5 6.53874 13.5 9.02778C13.5 11.5169 11.4813 13.5419 9 13.5419Z" fill="#0D3151"/>
<path fill-rule="evenodd" clip-rule="evenodd" d="M14.3996 4.5142C14.3996 5.01285 13.9967 5.41697 13.4997 5.41697C13.0026 5.41697 12.5996 5.01285 12.5996 4.5142C12.5996 4.01555 13.0026 3.61133 13.4997 3.61133C13.9967 3.61133 14.3996 4.01555 14.3996 4.5142Z" fill="#0D3151"/>
</g>
<defs>
<clipPath id="clip0_1_124">
<rect width="18" height="18.0564" fill="white"/>
</clipPath>
</defs>
</svg>
