<svg width="18" height="19" viewBox="0 0 18 19" fill="none" xmlns="http://www.w3.org/2000/svg">
<path fill-rule="evenodd" clip-rule="evenodd" d="M2.50729 0.724609C3.61906 0.724609 4.52435 1.63274 4.52435 2.74622C4.52435 3.86147 3.61906 4.7696 2.50729 4.7696C1.392 4.7696 0.490234 3.86147 0.490234 2.74622C0.490234 1.63274 1.392 0.724609 2.50729 0.724609ZM0.765528 17.5206H4.24729V6.30086H0.765528V17.5206Z" fill="#0D3151"/>
<path fill-rule="evenodd" clip-rule="evenodd" d="M6.42969 6.30136H9.76498V7.83439H9.8091C10.275 6.95281 11.4097 6.02344 13.102 6.02344C16.6209 6.02344 17.272 8.34422 17.272 11.366V17.5211H13.7973V12.067C13.7973 10.7641 13.7709 9.09126 11.9903 9.09126C10.1797 9.09126 9.90439 10.5075 9.90439 11.9697V17.5211H6.42969V6.30136Z" fill="#0D3151"/>
</svg>
