<svg width="276" height="100" viewBox="0 0 276 100" fill="none" xmlns="http://www.w3.org/2000/svg">
<path d="M60.654 70.7267V87.3359C60.654 87.3359 62.8346 87.3359 63.0641 87.3359C63.2937 87.3359 63.4658 87.1635 63.4658 86.9336V86.4163C63.4658 86.4163 64.3839 87.6232 66.3923 87.6232C69.6632 87.6232 72.188 85.152 72.188 81.7037C72.188 78.3129 69.6632 75.7841 66.3923 75.7841C64.4413 75.7841 63.4658 76.991 63.4658 76.991V70.6692L60.654 70.7267ZM65.9907 78.4853C67.8843 78.4853 69.3763 79.6922 69.3763 81.7037C69.3763 83.7152 67.9417 84.9221 65.9907 84.9221C64.9004 84.9221 64.0396 84.3474 63.5232 83.7152V79.6922C63.9823 79.1175 64.9578 78.4853 65.9907 78.4853ZM23.642 76.129H26.5111V87.3359H23.642V76.129ZM19.0513 76.5887C19.0513 76.7612 19.0513 77.106 19.0513 77.106C19.0513 77.106 18.1332 75.8991 16.1248 75.8991C12.854 75.8991 10.3291 78.3704 10.3291 81.8186C10.3291 85.2094 12.854 87.7382 16.1248 87.7382C18.1332 87.7382 19.0513 86.5313 19.0513 86.5313V87.0485C19.0513 87.2784 19.2235 87.4508 19.453 87.4508H21.8631V76.2439C21.8631 76.2439 19.6825 76.2439 19.453 76.2439C19.2235 76.2439 19.0513 76.3589 19.0513 76.5887ZM19.0513 83.7152C18.5923 84.3474 17.7315 84.9221 16.5839 84.9221C14.6902 84.9221 13.1983 83.7152 13.1983 81.7037C13.1983 79.6922 14.6328 78.4853 16.5839 78.4853C17.6167 78.4853 18.5923 79.06 19.0513 79.6922V83.7152V83.7152ZM27.0276 72.6807C27.0276 73.7726 26.1668 74.5772 25.0765 74.5772C23.9863 74.5772 23.1255 73.7152 23.1255 72.6807C23.1255 71.6462 23.9863 70.7841 25.0765 70.7841C26.1668 70.7841 27.0276 71.5887 27.0276 72.6807ZM56.3503 87.3359V81.014C56.3503 79.1749 55.7765 78.4278 54.1124 78.4278C53.2516 78.4278 52.3335 78.8876 51.817 79.5198V87.3359H48.9479V76.129H51.2432C51.4727 76.129 51.6449 76.3014 51.6449 76.5313V77.0485C52.5056 76.1864 53.5959 75.8416 54.6862 75.8416C55.9486 75.8416 56.9815 76.1864 57.8423 76.9336C58.8752 77.7382 59.2768 78.8301 59.2768 80.7267V87.3933H56.3503V87.3359ZM61.8591 49.5773C61.5148 48.7727 61.1131 47.9681 60.7688 47.1635L60.7114 47.106C57.4406 39.9796 53.9402 32.8531 50.3251 25.7842L50.1529 25.4968C49.8086 24.7497 49.407 24.0025 49.0053 23.3129C48.5462 22.4508 48.0298 21.5313 47.2838 20.7267C45.7344 18.8876 43.5539 17.9106 41.2012 17.9106C38.8485 17.9106 36.7253 18.8876 35.1186 20.7267C34.3726 21.5888 33.9135 22.4508 33.3971 23.3129C32.9954 24.06 32.5937 24.8071 32.2494 25.5543L32.0773 25.8416C28.4048 32.9106 24.9044 40.0945 21.6336 47.1635L21.5762 47.2784C21.2319 48.083 20.8302 48.8876 20.4859 49.6922C20.2564 50.2094 20.0268 50.7841 19.7973 51.4163C19.1661 53.1405 18.9939 54.8071 19.2235 56.4738C19.7399 59.9795 22.0926 63.0255 25.3635 64.3474C26.5685 64.8646 27.8883 65.0945 29.2081 65.0945C29.6098 65.0945 30.0115 65.0945 30.4706 65.037C32.0773 64.8646 33.6266 64.2899 35.2333 63.4278C37.127 62.3359 39.0206 60.7841 41.0864 58.5428C43.1522 60.7841 45.0458 62.3933 46.9395 63.4278C48.4888 64.2899 50.0956 64.8646 51.7023 65.037C52.104 65.0945 52.563 65.0945 52.9647 65.0945C54.2845 65.0945 55.6043 64.8646 56.8094 64.3474C60.0802 63.0255 62.4903 59.9795 62.9494 56.4738C63.1789 54.8071 63.0067 53.1405 62.3755 51.4163C62.3755 50.6692 62.0886 50.0945 61.8591 49.5773ZM41.2586 53.8876C38.6763 50.6117 37.0696 47.6232 36.4384 45.0945C36.2089 44.0025 36.1515 43.0255 36.2662 42.1635C36.381 41.4163 36.6105 40.7267 37.0122 40.152C37.873 38.8876 39.4797 38.083 41.2012 38.083C42.9227 38.083 44.5294 38.8301 45.3901 40.152C45.7918 40.7267 46.0214 41.4163 46.1361 42.1635C46.2509 43.0255 46.1935 44.0025 45.964 45.0945C45.4475 47.6232 43.8408 50.6117 41.2586 53.8876ZM60.2524 56.0715C59.9081 58.5428 58.2439 60.6692 55.9486 61.5887C54.801 62.0485 53.5959 62.2209 52.3335 62.0485C51.1284 61.9336 49.9234 61.5313 48.7184 60.7841C46.9969 59.8071 45.2754 58.3704 43.3244 56.1864C46.423 52.3359 48.3741 48.8301 49.0627 45.6692C49.407 44.2324 49.4643 42.8531 49.2922 41.6462C49.12 40.4393 48.661 39.3474 48.0298 38.4278C46.5952 36.3014 44.0703 35.037 41.3159 35.037C38.5616 35.037 36.0941 36.3014 34.6021 38.4278C33.9709 39.3474 33.5119 40.4393 33.3397 41.6462C33.1676 42.9106 33.2249 44.2324 33.5692 45.6692C34.3152 48.8301 36.2089 52.3359 39.3075 56.1864C37.3565 58.3704 35.635 59.8071 33.9135 60.7841C32.6511 61.4738 31.5034 61.8761 30.2984 62.0485C29.036 62.2209 27.7735 62.0485 26.6833 61.5887C24.3879 60.6692 22.7238 58.5428 22.3795 56.0715C22.2074 54.8646 22.3222 53.7152 22.7812 52.3933C22.9534 51.9336 23.1255 51.4738 23.4124 50.8991C23.7567 50.0945 24.101 49.2899 24.5027 48.5428L24.5601 48.4278C27.8309 41.3589 31.3313 34.175 35.0038 27.106V26.8761C35.3481 26.129 35.7498 25.4393 36.1515 24.6922C36.5532 23.9451 36.9548 23.1979 37.4713 22.6232C38.4468 21.4738 39.7666 20.8416 41.2586 20.8416C42.7505 20.8416 44.0703 21.4738 45.0458 22.6232C45.5623 23.2554 45.964 23.9451 46.3657 24.6922C46.7673 25.3819 47.1116 26.129 47.5133 26.8761L47.6855 27.1635C51.358 34.2324 54.8583 41.4163 58.1292 48.4853L58.1866 48.5428C58.5309 49.3474 58.9325 50.152 59.2768 50.9566C59.5064 51.5313 59.7359 51.991 59.9081 52.4508C60.2524 53.7152 60.4245 54.8646 60.2524 56.0715ZM31.1591 76.5887V77.106C31.6756 76.4738 32.8233 75.8991 33.7414 75.8991C34.6021 75.8991 35.0612 76.014 35.0612 76.014V78.6577C35.0612 78.6577 32.6511 77.8531 31.1591 79.5772V87.3933H28.29V76.1864C28.29 76.1864 30.4706 76.1864 30.7575 76.1864C31.0444 76.1864 31.1591 76.3589 31.1591 76.5887ZM36.2089 70.7267V87.3359C36.2089 87.3359 38.3894 87.3359 38.6189 87.3359C38.8485 87.3359 39.0206 87.1635 39.0206 86.9336V86.4163C39.0206 86.4163 39.9388 87.6232 41.9472 87.6232C45.218 87.6232 47.7428 85.152 47.7428 81.7037C47.7428 78.3129 45.218 75.7841 41.9472 75.7841C39.9961 75.7841 39.0206 76.991 39.0206 76.991V70.6692L36.2089 70.7267ZM41.4881 78.4853C43.3817 78.4853 44.8737 79.6922 44.8737 81.7037C44.8737 83.7152 43.4391 84.9221 41.4881 84.9221C40.3978 84.9221 39.5371 84.3474 39.0206 83.7152V79.6922C39.5371 79.1175 40.4552 78.4853 41.4881 78.4853ZM96.748 87.2209V85.0945C97.3218 84.6347 97.7809 84.2324 98.1826 83.8876C98.5842 83.5428 98.9859 83.1979 99.2728 82.9106C99.6171 82.6232 99.8467 82.3933 100.134 82.1635C100.42 81.9336 100.65 81.7037 100.88 81.4163C101.453 80.8416 101.912 80.3244 102.314 79.8646C102.658 79.4048 102.945 79.0025 103.175 78.6002C103.347 78.1979 103.462 77.7956 103.462 77.3359C103.462 76.7037 103.29 76.1864 102.945 75.8416C102.601 75.4968 102.142 75.2669 101.568 75.2669C101.052 75.2669 100.593 75.4393 100.191 75.7841C99.7893 76.129 99.5597 76.5887 99.445 77.1635L96.6332 76.7037C96.8054 75.8991 97.0923 75.152 97.6087 74.5772C98.0678 73.9451 98.699 73.4853 99.3876 73.1405C100.076 72.7956 100.88 72.6232 101.683 72.6232C102.372 72.6232 103.003 72.7382 103.634 72.9681C104.208 73.1979 104.724 73.5428 105.126 73.9451C105.528 74.3474 105.872 74.8646 106.101 75.4393C106.331 76.014 106.446 76.6462 106.446 77.2784C106.446 77.9106 106.331 78.4853 106.101 79.06C105.872 79.6347 105.528 80.2094 105.069 80.7841C104.609 81.3589 103.978 82.0485 103.232 82.7956C102.888 83.1405 102.544 83.4278 102.199 83.7152C101.855 84.0025 101.511 84.3474 101.109 84.6347H106.675V87.2209H96.748ZM113.963 87.5083C113.102 87.5083 112.356 87.3359 111.725 86.991C111.036 86.6462 110.463 86.129 110.003 85.4968C109.544 84.8646 109.143 84.06 108.913 83.1405C108.684 82.2209 108.569 81.1864 108.569 80.037C108.569 78.8876 108.684 77.8531 108.971 76.9336C109.2 76.014 109.602 75.2094 110.061 74.5772C110.52 73.9451 111.094 73.4278 111.782 73.083C112.471 72.7382 113.217 72.5658 114.078 72.5658C114.938 72.5658 115.684 72.7382 116.316 73.083C117.004 73.4278 117.578 73.9451 118.037 74.5772C118.496 75.2094 118.898 76.014 119.127 76.9336C119.357 77.8531 119.472 78.8876 119.472 80.037C119.472 81.1864 119.357 82.2209 119.07 83.1405C118.84 84.06 118.439 84.8646 117.98 85.4968C117.521 86.129 116.947 86.6462 116.258 86.991C115.57 87.3359 114.824 87.5083 113.963 87.5083ZM114.02 84.8071C114.824 84.8071 115.455 84.4048 115.857 83.6002C116.316 82.7956 116.488 81.5887 116.488 80.0945C116.488 78.6002 116.258 77.3933 115.857 76.5887C115.397 75.7841 114.824 75.3818 114.02 75.3818C113.217 75.3818 112.586 75.7841 112.184 76.5887C111.725 77.3933 111.553 78.6002 111.553 80.0945C111.553 81.5887 111.782 82.7956 112.184 83.6002C112.586 84.4048 113.217 84.8071 114.02 84.8071ZM121.078 87.2209V85.0945C121.652 84.6347 122.111 84.2324 122.513 83.8876C122.915 83.5428 123.316 83.1979 123.603 82.9106C123.948 82.6232 124.177 82.3933 124.464 82.1635C124.751 81.9336 124.98 81.7037 125.21 81.4163C125.784 80.8416 126.243 80.3244 126.645 79.8646C126.989 79.4048 127.276 79.0025 127.505 78.6002C127.677 78.1979 127.792 77.7956 127.792 77.3359C127.792 76.7037 127.62 76.1864 127.276 75.8416C126.931 75.4968 126.472 75.2669 125.899 75.2669C125.382 75.2669 124.923 75.4393 124.521 75.7841C124.12 76.129 123.89 76.5887 123.775 77.1635L120.964 76.7037C121.136 75.8991 121.423 75.152 121.939 74.5772C122.398 73.9451 123.029 73.4853 123.718 73.1405C124.407 72.7956 125.21 72.6232 126.013 72.6232C126.702 72.6232 127.333 72.7382 127.964 72.9681C128.538 73.1979 129.055 73.5428 129.456 73.9451C129.858 74.3474 130.202 74.8646 130.432 75.4393C130.661 76.014 130.776 76.6462 130.776 77.2784C130.776 77.9106 130.661 78.4853 130.432 79.06C130.202 79.6347 129.858 80.2094 129.399 80.7841C128.94 81.3589 128.309 82.0485 127.563 82.7956C127.218 83.1405 126.874 83.4278 126.53 83.7152C126.185 84.0025 125.841 84.3474 125.44 84.6347H131.006V87.2209H121.078ZM107.192 20.2094C106.733 19.4623 106.044 18.8876 105.183 18.4853C104.323 18.083 103.29 17.9106 102.085 17.9106H97.3792V32.6232H100.42V27.6807C100.994 27.7956 101.568 27.8531 102.085 27.8531C102.945 27.8531 103.749 27.7382 104.437 27.5083C105.126 27.2784 105.757 26.9336 106.274 26.5313C106.79 26.0715 107.192 25.5543 107.479 24.9796C107.766 24.4048 107.88 23.7152 107.88 22.9681C107.88 21.8761 107.651 20.9566 107.192 20.2094ZM104.036 24.6347C103.519 25.037 102.888 25.2094 101.97 25.2094C101.511 25.2094 100.994 25.152 100.42 25.0945V20.5543H102.027C102.888 20.5543 103.577 20.7842 104.036 21.1865C104.495 21.5888 104.724 22.1635 104.724 22.9106C104.724 23.6577 104.495 24.2324 104.036 24.6347ZM109.602 32.6232V21.7037H112.241L112.356 23.3704C112.643 22.7957 112.987 22.3359 113.446 22.0485C113.906 21.7612 114.479 21.5888 115.111 21.5888C115.283 21.5888 115.512 21.5888 115.684 21.6462C115.857 21.7037 116.029 21.7037 116.201 21.7612L115.914 24.6347C115.742 24.5773 115.627 24.5198 115.455 24.5198C115.283 24.5198 115.111 24.4623 114.996 24.4623C114.192 24.4623 113.561 24.6922 113.16 25.2094C112.758 25.7267 112.528 26.4163 112.528 27.2784V32.6232H109.602ZM127.85 27.1635C127.85 26.3014 127.735 25.4968 127.448 24.8071C127.218 24.1175 126.817 23.4853 126.358 22.9681C125.899 22.4508 125.325 22.0485 124.694 21.7612C124.062 21.4738 123.316 21.3589 122.513 21.3589C121.767 21.3589 121.021 21.5313 120.39 21.8186C119.759 22.106 119.127 22.5083 118.668 23.0255C118.152 23.5428 117.808 24.175 117.521 24.8646C117.234 25.5543 117.119 26.3014 117.119 27.1635C117.119 28.0255 117.234 28.7727 117.521 29.4623C117.808 30.152 118.209 30.7842 118.668 31.3014C119.185 31.8186 119.759 32.2209 120.447 32.5083C121.136 32.7956 121.882 32.9106 122.685 32.9106C123.431 32.9106 124.12 32.7956 124.808 32.5658C125.497 32.3359 126.071 31.991 126.53 31.5313C127.046 31.0715 127.391 30.5543 127.62 29.9221L125.038 29.1175C124.751 29.5773 124.464 29.9221 124.062 30.152C123.661 30.3819 123.202 30.4968 122.685 30.4968C121.997 30.4968 121.365 30.2669 120.906 29.8071C120.447 29.3474 120.16 28.7152 120.045 27.9106H127.85V27.1635ZM120.103 25.9566C120.218 25.2669 120.505 24.6922 120.964 24.2324C121.423 23.8301 121.939 23.6002 122.57 23.6002C123.202 23.6002 123.718 23.8301 124.12 24.2324C124.521 24.6347 124.808 25.2094 124.923 25.9566H120.103ZM130.719 32.6232V24.06H128.882V21.7037H130.719V21.0715C130.719 20.4968 130.834 19.9221 131.006 19.4048C131.178 18.8876 131.465 18.4853 131.866 18.083C132.211 17.7382 132.67 17.4508 133.186 17.2209C133.703 17.0485 134.219 16.9336 134.85 16.9336C135.309 16.9336 135.711 16.9911 136.055 17.106C136.4 17.2209 136.744 17.3359 136.973 17.4508L136.4 19.6922C136.228 19.6347 136.055 19.5198 135.826 19.4623C135.596 19.4048 135.424 19.3474 135.195 19.3474C134.621 19.3474 134.219 19.5198 133.99 19.8071C133.703 20.152 133.588 20.5543 133.588 21.1865V21.7037H136.457V24.06H133.588V32.6232H130.719ZM148.163 27.1635C148.163 26.3014 148.048 25.4968 147.762 24.8071C147.532 24.1175 147.13 23.4853 146.671 22.9681C146.212 22.4508 145.638 22.0485 145.007 21.7612C144.376 21.4738 143.63 21.3589 142.827 21.3589C142.081 21.3589 141.335 21.5313 140.703 21.8186C140.015 22.106 139.441 22.5083 138.982 23.0255C138.465 23.5428 138.121 24.175 137.834 24.8646C137.547 25.5543 137.433 26.3014 137.433 27.1635C137.433 28.0255 137.547 28.7727 137.834 29.4623C138.121 30.152 138.523 30.7842 138.982 31.3014C139.498 31.8186 140.072 32.2209 140.761 32.5083C141.449 32.7956 142.195 32.9106 142.999 32.9106C143.745 32.9106 144.433 32.7956 145.122 32.5658C145.81 32.3359 146.384 31.991 146.843 31.5313C147.36 31.0715 147.704 30.5543 147.934 29.9221L145.351 29.1175C145.065 29.5773 144.778 29.9221 144.376 30.152C143.974 30.3819 143.515 30.4968 142.999 30.4968C142.31 30.4968 141.679 30.2669 141.22 29.8071C140.761 29.3474 140.474 28.7152 140.359 27.9106H148.163V27.1635ZM140.359 25.9566C140.474 25.2669 140.761 24.6922 141.22 24.2324C141.679 23.8301 142.195 23.6002 142.827 23.6002C143.458 23.6002 143.974 23.8301 144.376 24.2324C144.778 24.6347 145.064 25.2094 145.179 25.9566H140.359ZM149.942 32.6232V21.7037H152.582L152.696 23.3704C152.983 22.7957 153.328 22.3359 153.787 22.0485C154.246 21.7612 154.82 21.5888 155.451 21.5888C155.623 21.5888 155.853 21.5888 156.025 21.6462C156.197 21.7037 156.369 21.7037 156.541 21.7612L156.254 24.6347C156.082 24.5773 155.967 24.5198 155.795 24.5198C155.623 24.5198 155.451 24.4623 155.336 24.4623C154.533 24.4623 153.901 24.6922 153.5 25.2094C153.098 25.7267 152.869 26.4163 152.869 27.2784V32.6232H149.942ZM158.148 32.6232V21.7037H160.787L160.902 23.3704C161.189 22.7957 161.533 22.3359 161.992 22.0485C162.452 21.7612 163.025 21.5888 163.657 21.5888C163.829 21.5888 164.058 21.5888 164.23 21.6462C164.403 21.7037 164.575 21.7037 164.747 21.7612L164.46 24.6347C164.288 24.5773 164.173 24.5198 164.001 24.5198C163.829 24.5198 163.657 24.4623 163.542 24.4623C162.738 24.4623 162.107 24.6922 161.706 25.2094C161.304 25.7267 161.074 26.4163 161.074 27.2784V32.6232H158.148ZM176.453 27.1635C176.453 26.3014 176.338 25.4968 176.051 24.8071C175.822 24.1175 175.42 23.4853 174.961 22.9681C174.502 22.4508 173.928 22.0485 173.297 21.7612C172.666 21.4738 171.92 21.3589 171.116 21.3589C170.37 21.3589 169.624 21.5313 168.993 21.8186C168.362 22.106 167.731 22.5083 167.272 23.0255C166.755 23.5428 166.411 24.175 166.124 24.8646C165.837 25.5543 165.722 26.3014 165.722 27.1635C165.722 28.0255 165.837 28.7727 166.124 29.4623C166.411 30.152 166.813 30.7842 167.272 31.3014C167.788 31.8186 168.362 32.2209 169.051 32.5083C169.739 32.7956 170.485 32.9106 171.289 32.9106C172.035 32.9106 172.723 32.7956 173.412 32.5658C174.1 32.3359 174.674 31.991 175.133 31.5313C175.65 31.0715 175.994 30.5543 176.223 29.9221L173.641 29.1175C173.354 29.5773 173.067 29.9221 172.666 30.152C172.264 30.3819 171.805 30.4968 171.289 30.4968C170.6 30.4968 169.969 30.2669 169.51 29.8071C169.051 29.3474 168.764 28.7152 168.649 27.9106H176.453V27.1635V27.1635ZM168.649 25.9566C168.764 25.2669 169.051 24.6922 169.51 24.2324C169.969 23.8301 170.485 23.6002 171.116 23.6002C171.748 23.6002 172.264 23.8301 172.666 24.2324C173.067 24.6347 173.354 25.2094 173.469 25.9566H168.649ZM186.323 17.1635V22.9106C185.979 22.4508 185.462 22.0485 184.946 21.7612C184.372 21.4738 183.798 21.3589 183.109 21.3589C182.363 21.3589 181.675 21.5313 181.101 21.8186C180.47 22.106 179.953 22.5083 179.437 23.083C178.978 23.6002 178.576 24.2324 178.347 24.9221C178.06 25.6117 177.945 26.4163 177.945 27.2209C177.945 28.0255 178.06 28.7727 178.347 29.4623C178.634 30.152 178.978 30.7267 179.437 31.2439C179.896 31.7612 180.412 32.1635 181.044 32.4508C181.675 32.7382 182.306 32.9106 182.995 32.9106C183.741 32.9106 184.429 32.7382 185.06 32.3933C185.692 32.0485 186.151 31.5888 186.552 31.014L186.61 32.6232H189.249V17.1635H186.323ZM185.979 28.7727C185.749 29.2324 185.405 29.6347 185.003 29.9221C184.601 30.2094 184.142 30.3244 183.626 30.3244C183.109 30.3244 182.65 30.2094 182.249 29.9221C181.847 29.6347 181.503 29.2899 181.273 28.7727C181.044 28.2554 180.929 27.7382 180.929 27.1635C180.929 26.5313 181.044 26.014 181.273 25.5543C181.503 25.0945 181.847 24.6922 182.249 24.4048C182.65 24.1175 183.109 24.0025 183.626 24.0025C184.142 24.0025 184.601 24.1175 185.003 24.4048C185.405 24.6922 185.749 25.037 185.979 25.5543C186.208 26.014 186.323 26.5888 186.323 27.1635C186.38 27.7956 186.266 28.3129 185.979 28.7727ZM101.683 60.4968C100.822 60.4968 100.019 60.3244 99.2728 60.037C98.5268 59.7497 97.8956 59.2899 97.3792 58.7152C96.8627 58.1405 96.5184 57.4508 96.2889 56.6462L99.1581 56.014C99.3302 56.5887 99.6745 57.0485 100.076 57.3359C100.535 57.6807 101.052 57.7956 101.683 57.7956C102.142 57.7956 102.486 57.7382 102.831 57.5658C103.175 57.3933 103.404 57.1635 103.634 56.9336C103.806 56.6462 103.921 56.3589 103.921 55.9566C103.921 55.4968 103.749 55.152 103.404 54.8646C103.06 54.5772 102.486 54.3474 101.74 54.175L101.052 54.0025C99.5597 53.6577 98.4121 53.1405 97.7235 52.3933C97.0349 51.6462 96.6332 50.7841 96.6332 49.6922C96.6332 49.0025 96.748 48.4278 97.0349 47.8531C97.3218 47.2784 97.6661 46.8186 98.1252 46.4163C98.5842 46.014 99.1007 45.6692 99.7319 45.4393C100.363 45.2094 100.994 45.0945 101.74 45.0945C102.544 45.0945 103.29 45.2669 104.036 45.5543C104.724 45.8416 105.355 46.3014 105.814 46.8761C106.274 47.4508 106.618 48.083 106.79 48.8876L103.978 49.5198C103.806 48.9451 103.519 48.5428 103.117 48.2554C102.716 47.9681 102.257 47.7956 101.683 47.7956C101.339 47.7956 100.994 47.8531 100.707 48.0255C100.42 48.1979 100.191 48.3704 100.019 48.6002C99.8467 48.8301 99.7319 49.1175 99.7319 49.4623C99.7319 49.9221 99.904 50.3244 100.306 50.5543C100.65 50.7841 101.224 51.014 101.97 51.1864L102.658 51.3589C104.15 51.7037 105.298 52.2209 105.987 52.9106C106.733 53.6002 107.077 54.5198 107.077 55.6692C107.077 56.3589 106.962 56.991 106.675 57.5658C106.388 58.1405 106.044 58.6577 105.528 59.06C105.069 59.4623 104.495 59.8071 103.806 60.037C103.175 60.3818 102.486 60.4968 101.683 60.4968ZM119.701 52.4508C119.414 51.7612 119.013 51.129 118.496 50.6117C117.98 50.0945 117.406 49.6922 116.717 49.4048C116.029 49.1175 115.283 48.9451 114.479 48.9451C113.676 48.9451 112.873 49.1175 112.184 49.4048C111.495 49.6922 110.864 50.0945 110.348 50.6117C109.831 51.129 109.43 51.7612 109.143 52.4508C108.856 53.1405 108.684 53.8876 108.684 54.7497C108.684 55.5543 108.798 56.3589 109.085 57.0485C109.372 57.7382 109.774 58.3704 110.29 58.8876C110.807 59.4048 111.381 59.8071 112.069 60.0945C112.758 60.3818 113.504 60.5543 114.307 60.5543C115.111 60.5543 115.914 60.3818 116.603 60.0945C117.291 59.8071 117.922 59.4048 118.439 58.8876C118.955 58.3704 119.357 57.7382 119.644 57.0485C119.931 56.3589 120.103 55.5543 120.103 54.7497C120.103 53.9451 119.988 53.1405 119.701 52.4508ZM116.775 56.3589C116.545 56.8186 116.201 57.2209 115.799 57.5083C115.397 57.7956 114.938 57.9106 114.422 57.9106C113.906 57.9106 113.446 57.7956 113.045 57.5083C112.643 57.2209 112.299 56.8761 112.069 56.3589C111.84 55.8991 111.725 55.3244 111.725 54.7497C111.725 54.1175 111.84 53.6002 112.069 53.1405C112.299 52.6807 112.643 52.2784 113.045 51.991C113.446 51.7037 113.906 51.5887 114.422 51.5887C114.938 51.5887 115.397 51.7037 115.799 51.991C116.201 52.2784 116.545 52.6232 116.775 53.1405C117.004 53.6002 117.119 54.175 117.119 54.7497C117.176 55.3818 117.004 55.8991 116.775 56.3589ZM122.742 60.2094V51.6462H120.906V49.2899H122.742V48.6577C122.742 48.083 122.857 47.5083 123.029 46.991C123.202 46.4738 123.488 46.0715 123.89 45.6692C124.234 45.3244 124.694 45.037 125.21 44.8071C125.726 44.6347 126.243 44.5198 126.874 44.5198C127.333 44.5198 127.735 44.5773 128.079 44.6922C128.423 44.8071 128.768 44.9221 128.997 45.037L128.423 47.2784C128.251 47.2209 128.079 47.106 127.85 47.0485C127.62 46.991 127.448 46.9336 127.218 46.9336C126.645 46.9336 126.243 47.106 126.013 47.3933C125.726 47.7382 125.612 48.1405 125.612 48.7727V49.2899H128.481V51.6462H125.612V60.2094H122.742ZM135.08 60.4968C134.334 60.4968 133.645 60.3244 133.129 60.037C132.612 59.7497 132.153 59.2899 131.866 58.7727C131.579 58.1979 131.407 57.5083 131.407 56.7037V51.5887H129.571V49.2899H131.407V45.5543H134.276V49.2899H137.26V51.6462H134.276V56.3589C134.276 56.8761 134.391 57.2784 134.621 57.5658C134.85 57.8531 135.195 57.9681 135.654 57.9681C135.883 57.9681 136.113 57.9106 136.4 57.8531C136.687 57.7956 136.916 57.6807 137.203 57.5658L137.719 59.7497C137.375 59.9795 136.973 60.152 136.514 60.2669C136.113 60.4393 135.596 60.4968 135.08 60.4968ZM142.081 60.2094L138.465 49.2899H141.449L143.515 56.7037L145.753 49.2899H148.278L150.516 56.7037L152.582 49.2899H155.451L151.836 60.2094H149.196L146.901 52.7956L144.72 60.2094H142.081ZM165.263 51.7037C165.034 51.129 164.689 50.6692 164.288 50.2669C163.886 49.8646 163.37 49.5198 162.796 49.2899C162.222 49.06 161.591 48.9451 160.902 48.9451C160.156 48.9451 159.468 49.06 158.779 49.3474C158.148 49.6347 157.574 49.9796 157.115 50.4393C156.656 50.8991 156.369 51.4738 156.197 52.106L158.779 52.6232C158.951 52.2209 159.181 51.8761 159.582 51.6462C159.927 51.4163 160.386 51.3014 160.845 51.3014C161.476 51.3014 161.935 51.4738 162.279 51.8761C162.624 52.2784 162.796 52.7382 162.796 53.3704V54.0025C162.394 53.8301 161.993 53.7152 161.591 53.6577C161.189 53.6002 160.73 53.5428 160.328 53.5428C159.41 53.5428 158.664 53.7152 157.976 54.0025C157.287 54.2899 156.771 54.6922 156.426 55.2094C156.082 55.7267 155.853 56.3589 155.853 57.0485C155.853 57.5658 155.967 58.0255 156.139 58.4278C156.312 58.8301 156.598 59.2324 156.943 59.5198C157.287 59.8071 157.689 60.0945 158.148 60.2094C158.607 60.3818 159.123 60.4393 159.697 60.4393C160.443 60.4393 161.132 60.2669 161.648 59.9795C162.222 59.6922 162.624 59.2899 162.911 58.8301L162.968 60.0945H165.55V53.6002C165.608 52.9106 165.493 52.2784 165.263 51.7037ZM162.796 56.0715C162.796 56.4738 162.681 56.8761 162.509 57.2209C162.279 57.5658 161.993 57.8531 161.648 58.0255C161.304 58.1979 160.902 58.3129 160.443 58.3129C159.927 58.3129 159.525 58.1979 159.181 57.9681C158.836 57.7382 158.722 57.3933 158.722 56.991C158.722 56.5887 158.894 56.2439 159.295 55.9566C159.697 55.6692 160.214 55.5543 160.845 55.5543C161.189 55.5543 161.533 55.6117 161.878 55.6692C162.222 55.7267 162.566 55.8416 162.853 55.9566V56.0715H162.796V56.0715ZM167.96 60.2094V49.2899H170.6L170.715 50.9566C171.002 50.3819 171.346 49.9221 171.805 49.6347C172.264 49.3474 172.838 49.175 173.469 49.175C173.641 49.175 173.871 49.175 174.043 49.2324C174.215 49.2899 174.387 49.2899 174.559 49.3474L174.272 52.2209C174.1 52.1635 173.986 52.106 173.813 52.106C173.641 52.106 173.469 52.0485 173.354 52.0485C172.551 52.0485 171.92 52.2784 171.518 52.7956C171.116 53.3129 170.887 54.0025 170.887 54.8646V60.2094H167.96ZM186.208 54.7497C186.208 53.8876 186.093 53.083 185.806 52.3933C185.577 51.7037 185.175 51.0715 184.716 50.5543C184.257 50.037 183.683 49.6347 183.052 49.3474C182.421 49.06 181.675 48.9451 180.872 48.9451C180.126 48.9451 179.38 49.1175 178.748 49.4048C178.06 49.6922 177.486 50.0945 177.027 50.6117C176.51 51.129 176.166 51.7612 175.879 52.4508C175.592 53.1405 175.478 53.8876 175.478 54.7497C175.478 55.6117 175.592 56.3589 175.879 57.0485C176.166 57.7382 176.568 58.3704 177.027 58.8876C177.543 59.4048 178.117 59.8071 178.806 60.0945C179.494 60.3818 180.24 60.4968 181.044 60.4968C181.79 60.4968 182.478 60.3818 183.167 60.152C183.855 59.9221 184.429 59.5772 184.888 59.1175C185.405 58.6577 185.749 58.1405 185.979 57.5083L183.396 56.7037C183.109 57.1635 182.823 57.5083 182.421 57.7382C182.019 57.9681 181.56 58.083 181.044 58.083C180.355 58.083 179.724 57.8531 179.265 57.3933C178.806 56.9336 178.519 56.3014 178.404 55.4968H186.208V54.7497V54.7497ZM178.461 53.5428C178.576 52.8531 178.863 52.2784 179.322 51.8186C179.781 51.4163 180.298 51.1864 180.929 51.1864C181.56 51.1864 182.077 51.4163 182.478 51.8186C182.88 52.2209 183.167 52.7956 183.282 53.5428H178.461ZM202.333 47.7956C201.874 47.0485 201.185 46.4738 200.324 46.0715C199.464 45.6692 198.431 45.4968 197.226 45.4968H192.52V60.2094H195.562V55.2669C196.135 55.3818 196.709 55.4393 197.226 55.4393C198.086 55.4393 198.89 55.3244 199.578 55.0945C200.267 54.8646 200.898 54.5198 201.415 54.1175C201.931 53.6577 202.333 53.1405 202.62 52.5658C202.907 51.991 203.021 51.3014 203.021 50.5543C203.021 49.4623 202.792 48.5428 202.333 47.7956ZM199.177 52.2209C198.66 52.6232 198.029 52.7956 197.111 52.7956C196.652 52.7956 196.135 52.7382 195.562 52.6807V48.1405H197.168C198.029 48.1405 198.718 48.3704 199.177 48.7727C199.636 49.175 199.865 49.7497 199.865 50.4968C199.865 51.2439 199.636 51.8186 199.177 52.2209ZM213.35 51.7037C213.121 51.129 212.777 50.6692 212.375 50.2669C211.973 49.8646 211.457 49.5198 210.883 49.2899C210.309 49.06 209.678 48.9451 208.989 48.9451C208.243 48.9451 207.555 49.06 206.866 49.3474C206.235 49.6347 205.661 49.9796 205.202 50.4393C204.743 50.8991 204.456 51.4738 204.284 52.106L206.866 52.6232C207.038 52.2209 207.268 51.8761 207.669 51.6462C208.014 51.4163 208.473 51.3014 208.932 51.3014C209.563 51.3014 210.022 51.4738 210.366 51.8761C210.711 52.2784 210.883 52.7382 210.883 53.3704V54.0025C210.481 53.8301 210.079 53.7152 209.678 53.6577C209.276 53.6002 208.817 53.5428 208.415 53.5428C207.497 53.5428 206.751 53.7152 206.063 54.0025C205.374 54.2899 204.858 54.6922 204.513 55.2094C204.169 55.7267 203.94 56.3589 203.94 57.0485C203.94 57.5658 204.054 58.0255 204.226 58.4278C204.399 58.8301 204.685 59.2324 205.03 59.5198C205.374 59.8071 205.776 60.0945 206.235 60.2094C206.694 60.3818 207.21 60.4393 207.784 60.4393C208.53 60.4393 209.219 60.2669 209.735 59.9795C210.309 59.6922 210.711 59.2899 210.998 58.8301L211.055 60.0945H213.637V53.6002C213.695 52.9106 213.58 52.2784 213.35 51.7037ZM210.883 56.0715C210.883 56.4738 210.768 56.8761 210.596 57.2209C210.366 57.5658 210.079 57.8531 209.735 58.0255C209.391 58.1979 208.989 58.3129 208.53 58.3129C208.014 58.3129 207.612 58.1979 207.268 57.9681C206.923 57.7382 206.809 57.3933 206.809 56.991C206.809 56.5887 206.981 56.2439 207.382 55.9566C207.784 55.6692 208.301 55.5543 208.932 55.5543C209.276 55.5543 209.62 55.6117 209.965 55.6692C210.309 55.7267 210.653 55.8416 210.94 55.9566V56.0715H210.883V56.0715ZM215.99 60.2094V49.2899H218.63L218.744 50.9566C219.031 50.3819 219.376 49.9221 219.835 49.6347C220.294 49.3474 220.868 49.175 221.499 49.175C221.671 49.175 221.9 49.175 222.073 49.2324C222.245 49.2899 222.417 49.2899 222.589 49.3474L222.302 52.2209C222.13 52.1635 222.015 52.106 221.843 52.106C221.671 52.106 221.499 52.0485 221.384 52.0485C220.581 52.0485 219.949 52.2784 219.548 52.7956C219.146 53.3129 218.916 54.0025 218.916 54.8646V60.2094H215.99ZM229.245 60.4968C228.499 60.4968 227.811 60.3244 227.294 60.037C226.778 59.7497 226.319 59.2899 226.032 58.7727C225.745 58.1979 225.573 57.5083 225.573 56.7037V51.5887H223.737V49.2899H225.573V45.5543H228.442V49.2899H231.426V51.6462H228.442V56.3589C228.442 56.8761 228.557 57.2784 228.786 57.5658C229.016 57.8531 229.36 57.9681 229.819 57.9681C230.049 57.9681 230.278 57.9106 230.565 57.8531C230.852 57.7956 231.082 57.6807 231.369 57.5658L231.885 59.7497C231.541 59.9795 231.139 60.152 230.68 60.2669C230.221 60.4393 229.762 60.4968 229.245 60.4968ZM233.549 60.2094V49.2899H236.189L236.246 50.6692C236.59 50.152 236.992 49.7497 237.566 49.4048C238.14 49.06 238.771 48.9451 239.46 48.9451C240.263 48.9451 240.952 49.1175 241.583 49.5198C242.214 49.9221 242.673 50.4393 242.96 51.129C243.304 51.8186 243.476 52.6807 243.476 53.6002V60.2094H240.607V54.0025C240.607 53.2554 240.435 52.6232 240.091 52.2209C239.747 51.8186 239.287 51.5887 238.656 51.5887C238.197 51.5887 237.853 51.7037 237.509 51.8761C237.164 52.0485 236.935 52.3359 236.705 52.7382C236.533 53.083 236.418 53.4853 236.418 53.9451V60.2094H233.549ZM256.158 54.7497C256.158 53.8876 256.043 53.083 255.756 52.3933C255.527 51.7037 255.125 51.0715 254.666 50.5543C254.207 50.037 253.633 49.6347 253.002 49.3474C252.371 49.06 251.625 48.9451 250.821 48.9451C250.075 48.9451 249.329 49.1175 248.698 49.4048C248.01 49.6922 247.436 50.0945 246.977 50.6117C246.46 51.129 246.116 51.7612 245.829 52.4508C245.542 53.1405 245.427 53.8876 245.427 54.7497C245.427 55.6117 245.542 56.3589 245.829 57.0485C246.116 57.7382 246.518 58.3704 246.977 58.8876C247.493 59.4048 248.067 59.8071 248.756 60.0945C249.444 60.3818 250.19 60.4968 250.994 60.4968C251.74 60.4968 252.428 60.3818 253.117 60.152C253.805 59.9221 254.379 59.5772 254.838 59.1175C255.355 58.6577 255.699 58.1405 255.929 57.5083L253.346 56.7037C253.059 57.1635 252.772 57.5083 252.371 57.7382C251.969 57.9681 251.51 58.083 250.994 58.083C250.305 58.083 249.674 57.8531 249.215 57.3933C248.756 56.9336 248.469 56.3014 248.354 55.4968H256.158V54.7497V54.7497ZM248.411 53.5428C248.526 52.8531 248.813 52.2784 249.272 51.8186C249.731 51.4163 250.248 51.1864 250.879 51.1864C251.51 51.1864 252.026 51.4163 252.428 51.8186C252.83 52.2209 253.117 52.7956 253.232 53.5428H248.411ZM257.994 60.2094V49.2899H260.634L260.749 50.9566C261.036 50.3819 261.38 49.9221 261.839 49.6347C262.298 49.3474 262.872 49.175 263.503 49.175C263.675 49.175 263.905 49.175 264.077 49.2324C264.249 49.2899 264.421 49.2899 264.593 49.3474L264.306 52.2209C264.134 52.1635 264.02 52.106 263.847 52.106C263.675 52.106 263.503 52.0485 263.388 52.0485C262.585 52.0485 261.954 52.2784 261.552 52.7956C261.15 53.3129 260.921 54.0025 260.921 54.8646V60.2094H257.994ZM82.0579 13.083H83.7794V92.3933H82.0579V13.083ZM136.228 87.2209V76.0715L133.358 77.6807L132.383 75.2669L136.687 72.9681H139.211V87.2209H136.228Z" fill="#FF385C"/>
</svg>
