<svg width="221" height="50" viewBox="0 0 221 50" fill="none" xmlns="http://www.w3.org/2000/svg">
<g clip-path="url(#clip0_1_246)">
<path d="M87.7499 15.4212L86.4644 21.875C86.3968 22.2826 85.9232 22.5543 85.5172 22.4864C84.5024 22.2147 83.3522 22.0109 82.2021 22.0109C79.2929 22.0109 77.5338 23.4375 77.5338 26.6304V39.6739C77.5338 40.1495 77.1279 40.4891 76.7219 40.4891H70.2269C69.7533 40.4891 69.415 40.0815 69.415 39.6739V15.625C69.415 15.1495 69.821 14.8098 70.2269 14.8098H76.3836C76.8572 14.8098 77.1955 15.2174 77.1955 15.625V17.731C78.6839 15.2174 81.0519 14.0625 84.1641 14.0625C85.1113 14.0625 86.1938 14.1984 87.2086 14.4701C87.6146 14.606 87.8852 15.0136 87.7499 15.4212Z" fill="#0D3151"/>
<path d="M114.339 27.6495C114.339 28.1929 114.339 28.8723 114.271 29.4158C114.204 29.8234 113.865 30.163 113.459 30.163H96.8835C97.5601 32.9484 99.5221 34.3071 102.364 34.3071C104.055 34.3071 105.882 33.6957 107.438 32.4728C107.776 32.2011 108.182 32.269 108.453 32.5408L112.58 36.3451C112.918 36.6848 112.918 37.2283 112.58 37.5679C109.941 39.8777 106.288 41.1685 101.958 41.1685C93.9066 41.1685 88.4941 35.8016 88.4941 27.7853C88.4941 19.7011 93.839 14.0625 101.619 14.0625C109.129 14.0625 114.339 19.5652 114.339 27.6495ZM96.8835 24.5924H106.22C105.544 22.0109 103.987 20.6522 101.619 20.6522C99.0485 20.6522 97.4924 22.0788 96.8835 24.5924Z" fill="#0D3151"/>
<path d="M142.145 23.6413V39.6739C142.145 40.1495 141.739 40.5571 141.266 40.5571H134.838C134.365 40.5571 133.959 40.1495 133.959 39.6739V26.4946C133.959 23.4375 132.47 21.7391 129.899 21.7391C127.599 21.7391 125.772 23.3016 125.772 26.6304V39.606C125.772 40.0815 125.366 40.4891 124.893 40.4891H118.465C117.992 40.4891 117.586 40.0815 117.586 39.606V15.625C117.586 15.1495 117.992 14.7418 118.465 14.7418H124.555C125.028 14.7418 125.434 15.1495 125.434 15.625V18.0027C127.058 15.2853 129.629 14.0625 133.079 14.0625C138.153 14.0625 142.145 17.663 142.145 23.6413Z" fill="#0D3151"/>
<path d="M175.365 40.4893H168.87C168.396 40.4893 167.99 40.0817 167.99 39.6062V3.60074C167.99 3.1252 168.396 2.71759 168.87 2.71759H175.365C175.838 2.71759 176.244 3.1252 176.244 3.60074V39.6062C176.177 40.0817 175.838 40.4893 175.365 40.4893Z" fill="#0D3151"/>
<path d="M190.046 6.99751C190.046 9.7149 187.881 11.8888 185.175 11.8888C182.401 11.8888 180.304 9.78283 180.304 6.99751C180.304 4.21218 182.401 2.1062 185.175 2.1062C187.949 2.1062 190.046 4.21218 190.046 6.99751Z" fill="#0D3151"/>
<path d="M220.763 27.6497C220.763 35.3943 214.876 41.1688 206.893 41.1688C198.91 41.1688 193.023 35.3943 193.023 27.6497C193.023 19.9052 198.91 14.1307 206.893 14.1307C214.876 14.0628 220.763 19.8372 220.763 27.6497ZM201.142 27.6497C201.142 31.2503 203.578 33.7639 206.825 33.7639C210.141 33.7639 212.576 31.2503 212.576 27.6497C212.576 24.0492 210.141 21.5356 206.825 21.5356C203.578 21.5356 201.142 24.0492 201.142 27.6497Z" fill="#0D3151"/>
<path d="M162.916 32.745C162.713 32.2695 162.171 32.1336 161.765 32.3374C160.615 32.9488 159.33 33.4923 158.112 33.4923C156.082 33.4923 154.459 32.4733 154.459 29.5521V22.0793H162.374C162.848 22.0793 163.186 21.6716 163.186 21.264V15.6254C163.186 15.1499 162.78 14.8102 162.374 14.8102H154.459V8.15262C154.459 7.67708 154.053 7.3374 153.647 7.3374H147.152C146.678 7.3374 146.34 7.74501 146.34 8.15262V14.8102V22.0793V30.639C146.34 37.0928 149.452 41.1689 156.285 41.1689C160.074 41.1689 162.51 40.1499 164.742 38.7233C165.081 38.5195 165.216 38.0439 165.081 37.7043L162.916 32.745Z" fill="#0D3151"/>
<path d="M181.115 15.6253V22.0791V39.6742C181.115 40.1497 181.454 40.4894 181.927 40.4894H188.422C188.896 40.4894 189.234 40.1497 189.234 39.6742V15.6253C189.234 15.1497 188.896 14.8101 188.422 14.8101H181.995C181.521 14.8101 181.115 15.1497 181.115 15.6253Z" fill="#0D3151"/>
<path d="M52.9749 24.3871C53.8545 35.0529 48.5096 44.5638 40.1202 49.523C38.2258 50.6779 35.7226 49.523 35.249 47.3491L31.8661 30.4333C31.6632 29.4143 31.9338 28.3273 32.678 27.5801C34.4371 25.7458 35.3843 23.2322 34.9783 20.4469C34.5047 16.5746 31.3249 13.4496 27.4685 13.042C22.2589 12.4306 17.8613 16.5067 17.8613 21.6018C17.8613 23.9116 18.7408 26.0176 20.2293 27.5801C20.9735 28.3273 21.2441 29.4143 21.0411 30.4333L17.6583 47.3491C17.2524 49.523 14.7491 50.6779 12.8547 49.523C5.20954 44.9034 0 36.3436 0 26.629C0 11.3436 12.8547 -0.952555 28.348 0.0664669C41.338 0.949619 51.8924 11.3436 52.9749 24.3871Z" fill="url(#paint0_linear_1_246)"/>
</g>
<defs>
<linearGradient id="paint0_linear_1_246" x1="0" y1="24.9929" x2="53.0582" y2="24.9929" gradientUnits="userSpaceOnUse">
<stop stop-color="#A9CF3A"/>
<stop offset="0.0515359" stop-color="#A7CF40"/>
<stop offset="0.1291" stop-color="#A2CE52"/>
<stop offset="0.2231" stop-color="#99CD6F"/>
<stop offset="0.3298" stop-color="#8BCB92"/>
<stop offset="0.4466" stop-color="#78CABB"/>
<stop offset="0.5633" stop-color="#59C9E7"/>
<stop offset="1" stop-color="#1D9ED9"/>
</linearGradient>
<clipPath id="clip0_1_246">
<rect width="220.763" height="50" fill="white"/>
</clipPath>
</defs>
</svg>
