<svg width="22" height="19" viewBox="0 0 22 19" fill="none" xmlns="http://www.w3.org/2000/svg">
<g clip-path="url(#clip0_1_99)">
<path fill-rule="evenodd" clip-rule="evenodd" d="M6.92573 13.8978C4.61231 13.8188 3.16523 12.1881 2.7819 10.864C3.4259 10.9843 4.06031 10.9599 4.6909 10.8075C4.70815 10.8038 4.72348 10.7944 4.75606 10.7793C3.50065 10.4916 2.53465 9.83513 1.8619 8.77244C1.41723 8.06711 1.20256 7.29595 1.21023 6.44955C1.83506 6.77683 2.49056 6.95927 3.19206 6.97808C2.24906 6.31225 1.61656 5.4414 1.35781 4.32604C1.10098 3.21444 1.26773 2.15927 1.83698 1.16241C4.24815 3.94799 7.29948 5.47714 11.0236 5.72918C10.9967 5.55426 10.9699 5.40379 10.9526 5.24955C10.8281 4.22071 11.037 3.26335 11.6024 2.3925C12.3116 1.30159 13.3236 0.622594 14.6231 0.415698C16.1219 0.174945 17.4291 0.594381 18.5235 1.63451C18.5963 1.70598 18.6576 1.72667 18.7592 1.70598C19.6754 1.50849 20.5398 1.18498 21.3506 0.726042C21.3697 0.714757 21.3889 0.705353 21.41 0.695948C21.4138 0.694068 21.4215 0.694068 21.4387 0.694068C21.088 1.70974 20.4459 2.49595 19.5316 3.07338C20.3941 2.97933 21.2183 2.75551 22.0137 2.41695C22.0195 2.42448 22.0252 2.432 22.031 2.43764C21.8604 2.65582 21.6956 2.88153 21.5192 3.09407C21.0458 3.66585 20.5034 4.16805 19.8996 4.60441C19.8479 4.64015 19.8249 4.67589 19.8249 4.74172C19.8498 5.39062 19.8249 6.03764 19.7425 6.6809C19.5719 8.04078 19.1847 9.33482 18.5944 10.5724C17.9849 11.8514 17.1895 13.0044 16.1871 14.0182C14.4908 15.7392 12.4457 16.8508 10.0652 17.3681C9.24873 17.543 8.42073 17.6314 7.58506 17.6558C5.01673 17.7292 2.64198 17.1028 0.456979 15.7787C0.428229 15.7618 0.401396 15.743 0.351562 15.7129C1.90598 15.8765 3.38565 15.6809 4.80781 15.111C5.56298 14.8044 6.26256 14.4057 6.92573 13.8978Z" fill="#0D3151"/>
</g>
<defs>
<clipPath id="clip0_1_99">
<rect width="22" height="18.0564" fill="white"/>
</clipPath>
</defs>
</svg>
