<svg width="19" height="20" viewBox="0 0 19 20" fill="none" xmlns="http://www.w3.org/2000/svg">
<path fill-rule="evenodd" clip-rule="evenodd" d="M17.8253 3.85644C18.6366 2.98024 18.584 1.61224 17.7078 0.800943C16.8316 -0.0103575 15.4636 0.0422575 14.6523 0.918462L9.20074 6.80614L3.74919 0.918462C2.93788 0.0422575 1.56989 -0.0103575 0.693685 0.800943C-0.18252 1.61224 -0.235135 2.98024 0.576165 3.85644L6.25406 9.98856L0.575724 16.1212C-0.235577 16.9974 -0.182962 18.3654 0.693243 19.1767C1.56945 19.988 2.93744 19.9354 3.74874 19.0591L9.20074 13.171L14.6527 19.0591C15.464 19.9354 16.832 19.988 17.7082 19.1767C18.5845 18.3654 18.6371 16.9974 17.8258 16.1212L12.1474 9.98856L17.8253 3.85644Z" fill="#FF4000"/>
</svg>
