<svg width="28" height="23" viewBox="0 0 28 23" fill="none" xmlns="http://www.w3.org/2000/svg">
<path d="M4.94846 9.7566C4.08338 8.68049 2.50973 8.50943 1.43363 9.37451C0.357527 10.2396 0.18646 11.8132 1.05154 12.8893L4.94846 9.7566ZM9.875 19.875L7.92654 21.4414C8.38194 22.0079 9.06133 22.3481 9.78772 22.3735C10.5141 22.3989 11.2156 22.1068 11.7094 21.5735L9.875 19.875ZM27.3344 4.69852C28.2725 3.68541 28.2116 2.10367 27.1985 1.1656C26.1854 0.227532 24.6037 0.288368 23.6656 1.30148L27.3344 4.69852ZM1.05154 12.8893L7.92654 21.4414L11.8235 18.3086L4.94846 9.7566L1.05154 12.8893ZM11.7094 21.5735L27.3344 4.69852L23.6656 1.30148L8.0406 18.1765L11.7094 21.5735Z" fill="#A9CF3A"/>
</svg>
