<svg width="21" height="15" viewBox="0 0 21 15" fill="none" xmlns="http://www.w3.org/2000/svg">
<g clip-path="url(#clip0_1_116)">
<path fill-rule="evenodd" clip-rule="evenodd" d="M8.04309 9.9948C10.0945 8.92785 12.1264 7.87066 14.1856 6.79981C12.1245 5.72116 10.0906 4.65812 8.04309 3.58532V9.9948ZM2.62587 13.5487C1.8792 13.3029 1.37754 12.8133 1.10726 12.0702C0.450038 10.2581 0.255593 2.67247 1.52143 1.17836C1.95309 0.669265 2.51115 0.366931 3.1742 0.296712C6.58282 -0.0699897 17.1236 -0.0192757 18.337 0.421546C19.0486 0.679018 19.5542 1.1452 19.8303 1.85909C20.5498 3.73356 20.5731 10.5526 19.735 12.3588C19.5075 12.8484 19.1361 13.1956 18.6656 13.4414C17.3939 14.1104 4.30004 14.1007 2.62587 13.5487Z" fill="#0D3151"/>
</g>
<defs>
<clipPath id="clip0_1_116">
<rect width="21" height="14.0439" fill="white" transform="translate(0 0.00585938)"/>
</clipPath>
</defs>
</svg>
